<svg id="Layer_1" data-name="Layer 1" xmlns="http://www.w3.org/2000/svg" viewBox="0 0 332.2 46.54"><defs><style>.cls-1{fill:#2f6dea;}</style></defs><title>logo accomaxis</title><path class="cls-1" d="M616,482.9a4.8,4.8,0,0,1-1.89,3.8c-.06,0-.12.06-.17.11a4.88,4.88,0,0,1-2.68.79,4.72,4.72,0,0,1-4.69-4.68,4.55,4.55,0,0,1,.78-2.62,2.81,2.81,0,0,1,.33-.4,4.66,4.66,0,0,1,3.57-1.67,4.58,4.58,0,0,1,3.29,1.33,6.63,6.63,0,0,1,.56.67,3.4,3.4,0,0,1,.73,1.56A3.59,3.59,0,0,1,616,482.9Z" transform="translate(-333.9 -466.35)"/><path class="cls-1" d="M616.05,507.63a4.72,4.72,0,0,1-4.74,4.69,4.37,4.37,0,0,1-1.84-.38,2.5,2.5,0,0,0-.39-.17,5.83,5.83,0,0,1-1-.78,2.45,2.45,0,0,1-.72-.78,4.41,4.41,0,0,1-.79-2.56,4.72,4.72,0,0,1,9.43,0Z" transform="translate(-333.9 -466.35)"/><path class="cls-1" d="M376.23,506.07l-15.15-34a5.8,5.8,0,0,0-5.51-3.76h-.52a5.86,5.86,0,0,0-5.55,3.77l-15,34.07a5.17,5.17,0,0,0-.56,2.07,4.35,4.35,0,0,0,4.38,4.42,4.59,4.59,0,0,0,4.38-2.95l3-7.11,19.06,0,2.9,6.79a4.88,4.88,0,0,0,4.59,3.24,4.5,4.5,0,0,0,4-6.5Zm-27-11.9,5.95-14.28,6,14.26Z" transform="translate(-333.9 -466.35)"/><path class="cls-1" d="M407.39,501.64a4.36,4.36,0,0,0-2.53.88,9.62,9.62,0,0,1-6.17,2.28c-5.15,0-8.46-4.05-8.47-9.1v-.16c0-4.84,3.34-9,8-9a8.91,8.91,0,0,1,5.88,2.1,4.63,4.63,0,0,0,2.73.92,4.22,4.22,0,0,0,4.27-4.23,4.15,4.15,0,0,0-1.5-3.19c-2.79-2.32-6.29-3.7-11.29-3.69A17,17,0,0,0,381,495.71v.11a16.85,16.85,0,0,0,17.23,17.07c5.46,0,9-1.72,11.73-4.25a4,4,0,0,0-2.58-7Z" transform="translate(-333.9 -466.35)"/><path class="cls-1" d="M441.74,501.59a4.19,4.19,0,0,0-2.52.88,9.69,9.69,0,0,1-6.18,2.27c-5.15,0-8.4-4.05-8.41-9.1v-.15c0-4.85,3.28-9,8-9a9.1,9.1,0,0,1,5.88,2.1,4.31,4.31,0,0,0,2.68.92,4.2,4.2,0,0,0,2.76-7.42c-2.78-2.31-6.29-3.7-11.28-3.69a17,17,0,0,0-17.33,17.28v.11a16.85,16.85,0,0,0,17.23,17.07c5.46,0,9-1.71,11.74-4.24a4,4,0,0,0,1.38-3A4,4,0,0,0,441.74,501.59Z" transform="translate(-333.9 -466.35)"/><path class="cls-1" d="M467.66,478.31c-10.3,0-18,7.76-18,17.29v.1c0,9.53,7.6,17.09,17.91,17.07s18-7.75,17.94-17.23v-.16C485.55,485.91,477.91,478.3,467.66,478.31Zm8.63,17.35c0,4.89-3.23,9-8.58,9s-8.72-4.2-8.72-9.1v-.15c0-4.84,3.17-9,8.58-9,5.15,0,8.71,4.26,8.72,9.15Z" transform="translate(-333.9 -466.35)"/><path class="cls-1" d="M531.68,478.21a13.53,13.53,0,0,0-10.86,5.27c-1.75-3.35-5-5.25-9.33-5.24-4.79,0-7.62,2.54-9.77,5.32v-.36a4.69,4.69,0,1,0-9.37,0l0,24.46a4.69,4.69,0,0,0,9.38,0l0-14.17c0-4.43,2.15-6.7,5.71-6.7s5.46,2.25,5.47,6.68l0,14.17a4.72,4.72,0,0,0,9.43,0l0-14.16c0-4.43,2.16-6.7,5.66-6.71s5.51,2.26,5.52,6.69l0,14.16a4.66,4.66,0,0,0,4.69,4.68,4.71,4.71,0,0,0,4.68-4.69l0-17.26C542.87,482.41,538.64,478.19,531.68,478.21Z" transform="translate(-333.9 -466.35)"/><path class="cls-1" d="M575.93,482.1c-2.32-2.37-6-3.7-11.18-3.69a28.29,28.29,0,0,0-10.56,1.77,3.78,3.78,0,0,0-2.51,3.61,3.84,3.84,0,0,0,3.87,3.85,4.86,4.86,0,0,0,1.39-.26,21.25,21.25,0,0,1,6.48-.94c4.69,0,7.12,2.16,7.12,6V493a24.66,24.66,0,0,0-8.09-1.32c-7.88,0-13.33,3.37-13.32,10.58v.1c0,6.54,5.12,10.14,11.35,10.13a12.74,12.74,0,0,0,10-4.24v.1c0,2,1.76,3.86,4.49,3.86a4.51,4.51,0,0,0,4.57-4.49l0-15.09C579.55,488.22,578.41,484.57,575.93,482.1Zm-5.27,18.08c0,3.4-2.93,5.83-7.36,5.84-3,0-5.1-1.49-5.1-4v-.1c0-3,2.46-4.59,6.48-4.6a14.89,14.89,0,0,1,6,1.23Z" transform="translate(-333.9 -466.35)"/><path class="cls-1" d="M601.23,488.8l-6.14-8.18a5.32,5.32,0,0,0-4.38-2.36,4.19,4.19,0,0,0-4.32,4.33,5.53,5.53,0,0,0,1.55,3.55l7.74,8.9-8.43,10a4.59,4.59,0,0,0-1.28,3.19,4.17,4.17,0,0,0,4.38,4.12c1.65,0,2.94-1.09,4.07-2.43l6.68-8.77.51-.62.29-.32a8.08,8.08,0,0,0,0-10.69Z" transform="translate(-333.9 -466.35)"/><path class="cls-1" d="M628.24,466.35c-3,0-5.25,1.71-5.25,4.44v.1c0,2.73,2.27,4.43,5.26,4.42s5.25-1.71,5.25-4.43v-.11C633.49,468,631.17,466.35,628.24,466.35Zm0,11.95a4.71,4.71,0,0,0-4.73,4.7l0,24.46a4.71,4.71,0,0,0,9.42,0L633,483A4.71,4.71,0,0,0,628.26,478.3Z" transform="translate(-333.9 -466.35)"/><path class="cls-1" d="M656,491.7c-3.55-1.23-6.7-2.05-6.7-3.91v-.15c0-1.29,1.18-2.27,3.45-2.27a17,17,0,0,1,7.16,2.1,3.38,3.38,0,0,0,1.75.41,3.71,3.71,0,0,0,3.75-3.72,3.82,3.82,0,0,0-2.22-3.5,23.43,23.43,0,0,0-10.25-2.5c-6.7,0-12.15,3.78-12.14,10.47v.16c0,6.44,5.27,8.59,9.91,9.92,3.66,1.13,6.85,1.79,6.85,3.8v.16c0,1.44-1.18,2.47-3.91,2.47a17.54,17.54,0,0,1-9-3,3.69,3.69,0,0,0-1.86-.46,3.61,3.61,0,0,0-3.7,3.66,3.71,3.71,0,0,0,1.81,3.25,23.25,23.25,0,0,0,12.47,3.74c7.16,0,12.66-3.38,12.65-10.69v-.15C666.09,495.49,660.68,493.24,656,491.7Z" transform="translate(-333.9 -466.35)"/></svg>