<svg id="Layer_1" data-name="Layer 1" xmlns="http://www.w3.org/2000/svg" viewBox="0 0 300 53.56"><defs><style>.cls-1{fill:#ff7d37;}.cls-2{fill:#342a48;}</style></defs><title>plancord logo</title><circle class="cls-1" cx="199.25" cy="29.01" r="2.5"/><circle class="cls-1" cx="209.75" cy="29.01" r="2.5"/><circle class="cls-1" cx="199.25" cy="38.53" r="2.5"/><circle class="cls-1" cx="209.75" cy="38.53" r="2.5"/><rect class="cls-2" x="202.9" y="12.52" width="2.68" height="7" rx="1.34" ry="1.34"/><rect class="cls-2" x="214.9" y="12.52" width="2.68" height="7" rx="1.34" ry="1.34"/><circle class="cls-1" cx="220.46" cy="29.6" r="2.44"/><path class="cls-1" d="M278.31,137.93a10.86,10.86,0,0,1-4.34,2.22,2.38,2.38,0,0,1-.26-1.1,2.44,2.44,0,0,1,4.6-1.12Z" transform="translate(-55.69 -100.18)"/><path class="cls-2" d="M256.14,151.6a1.08,1.08,0,0,1-.28,0,.48.48,0,0,1-.42-.51.48.48,0,0,1,.5-.44s.22,0,.59,0c.91-.13,2.76-.84,3.46-4.43.63-5.37,3.23-5.53,7.94-5.84,1.36-.08,2.91-.18,4.7-.41,7.72-1,10.92-11.3,10.95-11.4a.5.5,0,0,1,.54-.34.48.48,0,0,1,.43.47c0,.3,0,7.51-9.74,15.33-8.45,6.78-16.23,7.52-18.35,7.58A1.89,1.89,0,0,1,256.14,151.6Zm25.43-16.78c-2.42,3.54-5.46,5.64-8.81,6.07-1.83.23-3.39.33-4.77.42-4.72.3-6.48.41-7,5a7.59,7.59,0,0,1-1.89,4,33.39,33.39,0,0,0,15.1-7.07A28.7,28.7,0,0,0,281.57,134.82Z" transform="translate(-55.69 -100.18)"/><path class="cls-2" d="M268.44,153.74h-5.05a16.51,16.51,0,0,1-16.51-16.51v-5.52a16.51,16.51,0,0,1,16.51-16.51h5.05A16.51,16.51,0,0,1,285,131.71v5.52A16.51,16.51,0,0,1,268.44,153.74Zm-5.05-37a15,15,0,0,0-15,15v5.52a15,15,0,0,0,15,15h5.05a15,15,0,0,0,15-15v-5.52a15,15,0,0,0-15-15Z" transform="translate(-55.69 -100.18)"/><path class="cls-2" d="M55.69,107.1a4.35,4.35,0,0,1,4.42-4.42H75.36c11.69,0,19,6.63,19,16.68v.14c0,11.19-9,17-20,17H64.45v12.05a4.38,4.38,0,0,1-8.76,0Zm19,21.52c6.63,0,10.76-3.7,10.76-8.91v-.14c0-5.85-4.21-8.91-10.76-8.91H64.45v18Z" transform="translate(-55.69 -100.18)"/><path class="cls-2" d="M102.8,104.46a4.25,4.25,0,0,1,4.28-4.28,4.31,4.31,0,0,1,4.35,4.28v44.19a4.32,4.32,0,0,1-8.63,0Z" transform="translate(-55.69 -100.18)"/><path class="cls-2" d="M120.19,141.74v-.15c0-8.12,6.35-12.11,15.54-12.11A31.6,31.6,0,0,1,145.85,131v-.92c0-5.35-3.28-8.2-9.34-8.2a22.25,22.25,0,0,0-8.33,1.5,5,5,0,0,1-1.36.21,3.59,3.59,0,0,1-3.63-3.56,3.76,3.76,0,0,1,2.35-3.42,32.12,32.12,0,0,1,12.11-2.21c5.64,0,9.84,1.49,12.48,4.2s4.06,6.7,4.06,11.62v18.53a4.11,4.11,0,0,1-4.2,4.14c-2.5,0-4.21-1.71-4.21-3.64v-1.42a15.32,15.32,0,0,1-12.26,5.48C126.46,153.35,120.19,149.29,120.19,141.74ZM146,139v-2.57a24,24,0,0,0-8.55-1.5c-5.56,0-8.84,2.36-8.84,6.28v.14c0,3.63,3.21,5.7,7.34,5.7C141.65,147.08,146,143.8,146,139Z" transform="translate(-55.69 -100.18)"/><path class="cls-2" d="M164.53,118.86a4.25,4.25,0,0,1,4.27-4.35,4.32,4.32,0,0,1,4.35,4.35v1.85c2.42-3.49,5.92-6.56,11.76-6.56,8.48,0,13.4,5.7,13.4,14.4v20.1a4.2,4.2,0,0,1-4.28,4.28,4.26,4.26,0,0,1-4.34-4.28V131.19c0-5.85-2.93-9.2-8.06-9.2s-8.48,3.5-8.48,9.34v17.32a4.31,4.31,0,0,1-8.62,0Z" transform="translate(-55.69 -100.18)"/><path class="cls-2" d="M207.43,134.54v-.15c0-10.19,8.13-19,18.54-19,6.27,0,10.4,2.71,13.68,5.78a1.91,1.91,0,0,1,.5,1.28,1.82,1.82,0,0,1-3,1.35c-2.93-2.77-6.35-5.13-11.27-5.13-8.26,0-14.68,6.92-14.68,15.61v.14c0,8.77,6.63,15.76,15,15.76,4.7,0,8.48-2.28,11.4-5.21a1.64,1.64,0,0,1,1.14-.57,1.84,1.84,0,0,1,1.71,1.71,1.57,1.57,0,0,1-.42,1.07c-3.64,3.71-7.84,6.28-14,6.28A18.72,18.72,0,0,1,207.43,134.54Z" transform="translate(-55.69 -100.18)"/><path class="cls-2" d="M295.17,117.72a1.75,1.75,0,1,1,3.5,0v8.83c3.13-7,9.48-10.9,14.61-10.9a1.85,1.85,0,0,1,1.85,1.92,1.9,1.9,0,0,1-1.85,1.93c-7.7.71-14.61,6.48-14.61,18.17v13.4a1.71,1.71,0,0,1-1.71,1.78,1.73,1.73,0,0,1-1.79-1.78Z" transform="translate(-55.69 -100.18)"/><path class="cls-2" d="M355.69,151.07a1.67,1.67,0,0,1-1.71,1.78,1.72,1.72,0,0,1-1.78-1.78v-6.63c-3.14,4.78-7.77,9-15,9-8.77,0-17.68-7.06-17.68-18.89v-.15c0-11.83,8.91-19,17.68-19,7.27,0,12,4.14,15,8.7V102a1.67,1.67,0,0,1,1.71-1.79,1.73,1.73,0,0,1,1.78,1.79Zm-32.36-16.82v.14c0,9.56,6.63,15.69,14.25,15.69a15.23,15.23,0,0,0,14.83-15.61v-.15a15.18,15.18,0,0,0-14.83-15.61C329.67,118.71,323.33,124.49,323.33,134.25Z" transform="translate(-55.69 -100.18)"/></svg>